<?xml version="1.0" encoding="UTF-8" standalone="no"?>
<!DOCTYPE svg PUBLIC "-//W3C//DTD SVG 1.1//EN"
 "http://www.w3.org/Graphics/SVG/1.1/DTD/svg11.dtd">
<!-- Generated by graphviz version 2.38.0 (20140413.2041)
 -->
<!-- Title: example Pages: 1 -->
<svg width="1304pt" height="548pt"
 viewBox="0.00 0.00 1304.00 548.00" xmlns="http://www.w3.org/2000/svg" xmlns:xlink="http://www.w3.org/1999/xlink">
<g id="graph0" class="graph" transform="scale(1 1) rotate(0) translate(4 544)">
<title>example</title>
<polygon fill="white" stroke="none" points="-4,4 -4,-544 1300,-544 1300,4 -4,4"/>
<!-- 0 -->
<g id="node1" class="node"><title>0</title>
<ellipse fill="#b8338e" stroke="#b8338e" cx="82" cy="-162" rx="27" ry="18"/>
<text text-anchor="middle" x="82" y="-158.3" font-family="Times,serif" font-size="14.00">0</text>
</g>
<!-- 1 -->
<g id="node2" class="node"><title>1</title>
<ellipse fill="#b23cae" stroke="#b23cae" cx="259" cy="-234" rx="27" ry="18"/>
<text text-anchor="middle" x="259" y="-230.3" font-family="Times,serif" font-size="14.00">1</text>
</g>
<!-- 2 -->
<g id="node3" class="node"><title>2</title>
<ellipse fill="#54b865" stroke="#54b865" cx="137" cy="-306" rx="27" ry="18"/>
<text text-anchor="middle" x="137" y="-302.3" font-family="Times,serif" font-size="14.00">2</text>
</g>
<!-- 2&#45;&#45;1 -->
<g id="edge1" class="edge"><title>2&#45;&#45;1</title>
<path fill="none" stroke="black" d="M156.873,-293.597C179.56,-280.581 216.452,-259.413 239.136,-246.398"/>
</g>
<!-- 3 -->
<g id="node4" class="node"><title>3</title>
<ellipse fill="#483f8c" stroke="#483f8c" cx="896" cy="-18" rx="27" ry="18"/>
<text text-anchor="middle" x="896" y="-14.3" font-family="Times,serif" font-size="14.00">3</text>
</g>
<!-- 4 -->
<g id="node5" class="node"><title>4</title>
<ellipse fill="#c4889c" stroke="#c4889c" cx="896" cy="-90" rx="27" ry="18"/>
<text text-anchor="middle" x="896" y="-86.3" font-family="Times,serif" font-size="14.00">4</text>
</g>
<!-- 4&#45;&#45;3 -->
<g id="edge2" class="edge"><title>4&#45;&#45;3</title>
<path fill="none" stroke="black" d="M896,-71.6966C896,-60.8463 896,-46.9167 896,-36.1043"/>
</g>
<!-- 5 -->
<g id="node6" class="node"><title>5</title>
<ellipse fill="#7f62bc" stroke="#7f62bc" cx="725" cy="-234" rx="27" ry="18"/>
<text text-anchor="middle" x="725" y="-230.3" font-family="Times,serif" font-size="14.00">5</text>
</g>
<!-- 6 -->
<g id="node7" class="node"><title>6</title>
<ellipse fill="#9e8bc6" stroke="#9e8bc6" cx="27" cy="-234" rx="27" ry="18"/>
<text text-anchor="middle" x="27" y="-230.3" font-family="Times,serif" font-size="14.00">6</text>
</g>
<!-- 6&#45;&#45;0 -->
<g id="edge3" class="edge"><title>6&#45;&#45;0</title>
<path fill="none" stroke="red" d="M38.9342,-217.811C48.1595,-206.07 60.8696,-189.893 70.0891,-178.159"/>
</g>
<!-- 7 -->
<g id="node8" class="node"><title>7</title>
<ellipse fill="#9e6688" stroke="#9e6688" cx="577" cy="-234" rx="27" ry="18"/>
<text text-anchor="middle" x="577" y="-230.3" font-family="Times,serif" font-size="14.00">7</text>
</g>
<!-- 8 -->
<g id="node9" class="node"><title>8</title>
<ellipse fill="#6fc87a" stroke="#6fc87a" cx="869" cy="-162" rx="27" ry="18"/>
<text text-anchor="middle" x="869" y="-158.3" font-family="Times,serif" font-size="14.00">8</text>
</g>
<!-- 8&#45;&#45;4 -->
<g id="edge4" class="edge"><title>8&#45;&#45;4</title>
<path fill="none" stroke="black" d="M875.399,-144.411C879.64,-133.414 885.189,-119.027 889.46,-107.956"/>
</g>
<!-- 9 -->
<g id="node10" class="node"><title>9</title>
<ellipse fill="#c2353a" stroke="#c2353a" cx="505" cy="-234" rx="27" ry="18"/>
<text text-anchor="middle" x="505" y="-230.3" font-family="Times,serif" font-size="14.00">9</text>
</g>
<!-- 10 -->
<g id="node11" class="node"><title>10</title>
<ellipse fill="#355d45" stroke="#355d45" cx="433" cy="-306" rx="27" ry="18"/>
<text text-anchor="middle" x="433" y="-302.3" font-family="Times,serif" font-size="14.00">10</text>
</g>
<!-- 10&#45;&#45;3 -->
<g id="edge5" class="edge"><title>10&#45;&#45;3</title>
<path fill="none" stroke="black" d="M435.988,-287.865C440.213,-268.264 449.68,-236.268 469,-216 586.871,-92.3447 797.336,-39.2183 870.274,-23.9384"/>
</g>
<!-- 10&#45;&#45;9 -->
<g id="edge6" class="edge"><title>10&#45;&#45;9</title>
<path fill="none" stroke="black" d="M447.57,-290.834C459.98,-278.77 477.731,-261.512 490.204,-249.385"/>
</g>
<!-- 11 -->
<g id="node12" class="node"><title>11</title>
<ellipse fill="#b46772" stroke="#b46772" cx="869" cy="-234" rx="27" ry="18"/>
<text text-anchor="middle" x="869" y="-230.3" font-family="Times,serif" font-size="14.00">11</text>
</g>
<!-- 11&#45;&#45;0 -->
<g id="edge7" class="edge"><title>11&#45;&#45;0</title>
<path fill="none" stroke="black" d="M843.329,-228.379C821.495,-224.589 789.277,-219.324 761,-216 508.228,-186.287 200.489,-169.071 108.922,-164.343"/>
</g>
<!-- 11&#45;&#45;8 -->
<g id="edge8" class="edge"><title>11&#45;&#45;8</title>
<path fill="none" stroke="black" d="M869,-215.697C869,-204.846 869,-190.917 869,-180.104"/>
</g>
<!-- 12 -->
<g id="node13" class="node"><title>12</title>
<ellipse fill="#c289a9" stroke="#c289a9" cx="869" cy="-306" rx="27" ry="18"/>
<text text-anchor="middle" x="869" y="-302.3" font-family="Times,serif" font-size="14.00">12</text>
</g>
<!-- 12&#45;&#45;5 -->
<g id="edge9" class="edge"><title>12&#45;&#45;5</title>
<path fill="none" stroke="black" d="M847.752,-294.671C820.527,-281.437 773.602,-258.626 746.335,-245.371"/>
</g>
<!-- 12&#45;&#45;11 -->
<g id="edge10" class="edge"><title>12&#45;&#45;11</title>
<path fill="none" stroke="black" d="M869,-287.697C869,-276.846 869,-262.917 869,-252.104"/>
</g>
<!-- 13 -->
<g id="node14" class="node"><title>13</title>
<ellipse fill="#4681c7" stroke="#4681c7" cx="27" cy="-306" rx="27" ry="18"/>
<text text-anchor="middle" x="27" y="-302.3" font-family="Times,serif" font-size="14.00">13</text>
</g>
<!-- 13&#45;&#45;6 -->
<g id="edge11" class="edge"><title>13&#45;&#45;6</title>
<path fill="none" stroke="red" d="M27,-287.697C27,-276.846 27,-262.917 27,-252.104"/>
</g>
<!-- 14 -->
<g id="node15" class="node"><title>14</title>
<ellipse fill="#a0aac1" stroke="#a0aac1" cx="505" cy="-306" rx="27" ry="18"/>
<text text-anchor="middle" x="505" y="-302.3" font-family="Times,serif" font-size="14.00">14</text>
</g>
<!-- 14&#45;&#45;9 -->
<g id="edge12" class="edge"><title>14&#45;&#45;9</title>
<path fill="none" stroke="black" d="M505,-287.697C505,-276.846 505,-262.917 505,-252.104"/>
</g>
<!-- 15 -->
<g id="node16" class="node"><title>15</title>
<ellipse fill="#4e4158" stroke="#4e4158" cx="797" cy="-306" rx="27" ry="18"/>
<text text-anchor="middle" x="797" y="-302.3" font-family="Times,serif" font-size="14.00">15</text>
</g>
<!-- 16 -->
<g id="node17" class="node"><title>16</title>
<ellipse fill="#49c45e" stroke="#49c45e" cx="101" cy="-378" rx="27" ry="18"/>
<text text-anchor="middle" x="101" y="-374.3" font-family="Times,serif" font-size="14.00">16</text>
</g>
<!-- 16&#45;&#45;0 -->
<g id="edge13" class="edge"><title>16&#45;&#45;0</title>
<path fill="none" stroke="black" d="M99.4773,-359.849C95.9197,-319.78 87.0947,-220.383 83.53,-180.232"/>
</g>
<!-- 16&#45;&#45;2 -->
<g id="edge14" class="edge"><title>16&#45;&#45;2</title>
<path fill="none" stroke="black" d="M109.35,-360.765C115.165,-349.456 122.89,-334.437 128.696,-323.147"/>
</g>
<!-- 16&#45;&#45;13 -->
<g id="edge15" class="edge"><title>16&#45;&#45;13</title>
<path fill="none" stroke="black" d="M86.025,-362.834C73.1863,-350.69 54.785,-333.283 41.9527,-321.144"/>
</g>
<!-- 17 -->
<g id="node18" class="node"><title>17</title>
<ellipse fill="#409440" stroke="#409440" cx="725" cy="-306" rx="27" ry="18"/>
<text text-anchor="middle" x="725" y="-302.3" font-family="Times,serif" font-size="14.00">17</text>
</g>
<!-- 17&#45;&#45;5 -->
<g id="edge16" class="edge"><title>17&#45;&#45;5</title>
<path fill="none" stroke="black" d="M725,-287.697C725,-276.846 725,-262.917 725,-252.104"/>
</g>
<!-- 18 -->
<g id="node19" class="node"><title>18</title>
<ellipse fill="#8a9891" stroke="#8a9891" cx="331" cy="-234" rx="27" ry="18"/>
<text text-anchor="middle" x="331" y="-230.3" font-family="Times,serif" font-size="14.00">18</text>
</g>
<!-- 19 -->
<g id="node20" class="node"><title>19</title>
<ellipse fill="#654138" stroke="#654138" cx="835" cy="-378" rx="27" ry="18"/>
<text text-anchor="middle" x="835" y="-374.3" font-family="Times,serif" font-size="14.00">19</text>
</g>
<!-- 19&#45;&#45;12 -->
<g id="edge17" class="edge"><title>19&#45;&#45;12</title>
<path fill="none" stroke="black" d="M842.886,-360.765C848.3,-349.618 855.466,-334.865 860.921,-323.633"/>
</g>
<!-- 19&#45;&#45;17 -->
<g id="edge18" class="edge"><title>19&#45;&#45;17</title>
<path fill="none" stroke="black" d="M815.839,-364.807C795.65,-351.959 764.048,-331.848 743.941,-319.053"/>
</g>
<!-- 20 -->
<g id="node21" class="node"><title>20</title>
<ellipse fill="#738d5f" stroke="#738d5f" cx="1072" cy="-234" rx="27" ry="18"/>
<text text-anchor="middle" x="1072" y="-230.3" font-family="Times,serif" font-size="14.00">20</text>
</g>
<!-- 21 -->
<g id="node22" class="node"><title>21</title>
<ellipse fill="#c8593a" stroke="#c8593a" cx="1203" cy="-234" rx="27" ry="18"/>
<text text-anchor="middle" x="1203" y="-230.3" font-family="Times,serif" font-size="14.00">21</text>
</g>
<!-- 22 -->
<g id="node23" class="node"><title>22</title>
<ellipse fill="#66a739" stroke="#66a739" cx="1017" cy="-306" rx="27" ry="18"/>
<text text-anchor="middle" x="1017" y="-302.3" font-family="Times,serif" font-size="14.00">22</text>
</g>
<!-- 22&#45;&#45;21 -->
<g id="edge19" class="edge"><title>22&#45;&#45;21</title>
<path fill="none" stroke="black" d="M1040.18,-296.276C1076.02,-282.789 1144.45,-257.034 1180.11,-243.614"/>
</g>
<!-- 23 -->
<g id="node24" class="node"><title>23</title>
<ellipse fill="#8b729f" stroke="#8b729f" cx="29" cy="-378" rx="27" ry="18"/>
<text text-anchor="middle" x="29" y="-374.3" font-family="Times,serif" font-size="14.00">23</text>
</g>
<!-- 23&#45;&#45;13 -->
<g id="edge20" class="edge"><title>23&#45;&#45;13</title>
<path fill="none" stroke="red" d="M28.5056,-359.697C28.1956,-348.846 27.7976,-334.917 27.4887,-324.104"/>
</g>
<!-- 24 -->
<g id="node25" class="node"><title>24</title>
<ellipse fill="#c43c63" stroke="#c43c63" cx="1017" cy="-378" rx="27" ry="18"/>
<text text-anchor="middle" x="1017" y="-374.3" font-family="Times,serif" font-size="14.00">24</text>
</g>
<!-- 24&#45;&#45;15 -->
<g id="edge21" class="edge"><title>24&#45;&#45;15</title>
<path fill="none" stroke="red" d="M991.885,-371.129C956.072,-362.451 888.518,-344.949 833,-324 828.085,-322.146 822.916,-319.894 818.076,-317.644"/>
</g>
<!-- 24&#45;&#45;20 -->
<g id="edge22" class="edge"><title>24&#45;&#45;20</title>
<path fill="none" stroke="black" d="M1029.75,-361.702C1037.56,-351.587 1047.15,-337.708 1053,-324 1063.17,-300.17 1068.11,-270.346 1070.34,-251.988"/>
</g>
<!-- 24&#45;&#45;22 -->
<g id="edge23" class="edge"><title>24&#45;&#45;22</title>
<path fill="none" stroke="black" d="M1017,-359.697C1017,-348.846 1017,-334.917 1017,-324.104"/>
</g>
<!-- 25 -->
<g id="node26" class="node"><title>25</title>
<ellipse fill="#6fa276" stroke="#6fa276" cx="962" cy="-450" rx="27" ry="18"/>
<text text-anchor="middle" x="962" y="-446.3" font-family="Times,serif" font-size="14.00">25</text>
</g>
<!-- 25&#45;&#45;19 -->
<g id="edge24" class="edge"><title>25&#45;&#45;19</title>
<path fill="none" stroke="black" d="M941.876,-437.908C918.236,-424.878 879.231,-403.379 855.45,-390.272"/>
</g>
<!-- 25&#45;&#45;20 -->
<g id="edge25" class="edge"><title>25&#45;&#45;20</title>
<path fill="none" stroke="black" d="M959.351,-431.827C955.453,-400.449 951.52,-332.953 981,-288 996.54,-264.303 1026.62,-249.872 1047.94,-242.174"/>
</g>
<!-- 26 -->
<g id="node27" class="node"><title>26</title>
<ellipse fill="#a6c788" stroke="#a6c788" cx="1148" cy="-522" rx="27" ry="18"/>
<text text-anchor="middle" x="1148" y="-518.3" font-family="Times,serif" font-size="14.00">26</text>
</g>
<!-- 26&#45;&#45;8 -->
<g id="edge26" class="edge"><title>26&#45;&#45;8</title>
<path fill="none" stroke="black" d="M1148,-503.951C1148,-477.292 1148,-424.115 1148,-379 1148,-379 1148,-379 1148,-305 1148,-261.633 1141.63,-243.381 1108,-216 1075.45,-189.502 950.875,-172.344 895.639,-165.887"/>
</g>
<!-- 26&#45;&#45;21 -->
<g id="edge27" class="edge"><title>26&#45;&#45;21</title>
<path fill="none" stroke="black" d="M1162.98,-506.996C1184.7,-485.557 1223.96,-442.201 1239,-396 1253.85,-350.356 1253.11,-333.88 1239,-288 1234.62,-273.753 1224.96,-259.9 1216.75,-249.931"/>
</g>
<!-- 26&#45;&#45;25 -->
<g id="edge28" class="edge"><title>26&#45;&#45;25</title>
<path fill="none" stroke="black" d="M1124.82,-512.276C1088.98,-498.789 1020.55,-473.034 984.889,-459.614"/>
</g>
<!-- 27 -->
<g id="node28" class="node"><title>27</title>
<ellipse fill="#717298" stroke="#717298" cx="175" cy="-378" rx="27" ry="18"/>
<text text-anchor="middle" x="175" y="-374.3" font-family="Times,serif" font-size="14.00">27</text>
</g>
<!-- 27&#45;&#45;2 -->
<g id="edge29" class="edge"><title>27&#45;&#45;2</title>
<path fill="none" stroke="black" d="M166.187,-360.765C160.048,-349.456 151.894,-334.437 145.766,-323.147"/>
</g>
<!-- 27&#45;&#45;6 -->
<g id="edge30" class="edge"><title>27&#45;&#45;6</title>
<path fill="none" stroke="black" d="M179.82,-360.158C184.27,-340.831 188.14,-309.094 173,-288 145.641,-249.881 88.0251,-239.096 53.9216,-236.097"/>
</g>
<!-- 27&#45;&#45;14 -->
<g id="edge31" class="edge"><title>27&#45;&#45;14</title>
<path fill="none" stroke="black" d="M201.518,-374.577C253.745,-369.294 373.172,-354.672 469,-324 474.135,-322.357 479.482,-320.136 484.437,-317.844"/>
</g>
<!-- 28 -->
<g id="node29" class="node"><title>28</title>
<ellipse fill="#aca1a0" stroke="#aca1a0" cx="361" cy="-378" rx="27" ry="18"/>
<text text-anchor="middle" x="361" y="-374.3" font-family="Times,serif" font-size="14.00">28</text>
</g>
<!-- 28&#45;&#45;1 -->
<g id="edge32" class="edge"><title>28&#45;&#45;1</title>
<path fill="none" stroke="black" d="M339.591,-366.588C323.007,-357.494 300.63,-342.811 287,-324 271.223,-302.226 264.134,-271.268 261.099,-252.192"/>
</g>
<!-- 28&#45;&#45;17 -->
<g id="edge33" class="edge"><title>28&#45;&#45;17</title>
<path fill="none" stroke="black" d="M381.542,-366.089C386.497,-363.799 391.851,-361.597 397,-360 411.497,-355.505 623.921,-322.568 698.973,-311.002"/>
</g>
<!-- 28&#45;&#45;18 -->
<g id="edge34" class="edge"><title>28&#45;&#45;18</title>
<path fill="none" stroke="black" d="M362.909,-359.95C364.415,-341.797 365.336,-312.382 359,-288 355.545,-274.705 348.209,-261.029 341.912,-250.9"/>
</g>
<!-- 29 -->
<g id="node30" class="node"><title>29</title>
<ellipse fill="#b4acc6" stroke="#b4acc6" cx="1203" cy="-306" rx="27" ry="18"/>
<text text-anchor="middle" x="1203" y="-302.3" font-family="Times,serif" font-size="14.00">29</text>
</g>
<!-- 29&#45;&#45;20 -->
<g id="edge35" class="edge"><title>29&#45;&#45;20</title>
<path fill="none" stroke="black" d="M1182.53,-294.062C1157.92,-280.912 1116.87,-258.977 1092.33,-245.861"/>
</g>
<!-- 29&#45;&#45;21 -->
<g id="edge36" class="edge"><title>29&#45;&#45;21</title>
<path fill="none" stroke="black" d="M1203,-287.697C1203,-276.846 1203,-262.917 1203,-252.104"/>
</g>
<!-- 30 -->
<g id="node31" class="node"><title>30</title>
<ellipse fill="#758c4d" stroke="#758c4d" cx="433" cy="-378" rx="27" ry="18"/>
<text text-anchor="middle" x="433" y="-374.3" font-family="Times,serif" font-size="14.00">30</text>
</g>
<!-- 30&#45;&#45;10 -->
<g id="edge37" class="edge"><title>30&#45;&#45;10</title>
<path fill="none" stroke="black" d="M433,-359.697C433,-348.846 433,-334.917 433,-324.104"/>
</g>
<!-- 31 -->
<g id="node32" class="node"><title>31</title>
<ellipse fill="#878367" stroke="#878367" cx="577" cy="-306" rx="27" ry="18"/>
<text text-anchor="middle" x="577" y="-302.3" font-family="Times,serif" font-size="14.00">31</text>
</g>
<!-- 31&#45;&#45;7 -->
<g id="edge38" class="edge"><title>31&#45;&#45;7</title>
<path fill="none" stroke="black" d="M577,-287.697C577,-276.846 577,-262.917 577,-252.104"/>
</g>
<!-- 32 -->
<g id="node33" class="node"><title>32</title>
<ellipse fill="#58727d" stroke="#58727d" cx="704" cy="-378" rx="27" ry="18"/>
<text text-anchor="middle" x="704" y="-374.3" font-family="Times,serif" font-size="14.00">32</text>
</g>
<!-- 32&#45;&#45;9 -->
<g id="edge39" class="edge"><title>32&#45;&#45;9</title>
<path fill="none" stroke="black" d="M691.351,-361.958C674.802,-342.952 644.22,-310.065 613,-288 609.141,-285.273 556.75,-259.908 526.384,-245.279"/>
</g>
<!-- 32&#45;&#45;15 -->
<g id="edge40" class="edge"><title>32&#45;&#45;15</title>
<path fill="none" stroke="black" d="M721.493,-363.834C738.12,-351.319 762.985,-332.603 779.586,-320.107"/>
</g>
<!-- 33 -->
<g id="node34" class="node"><title>33</title>
<ellipse fill="#9f689c" stroke="#9f689c" cx="323" cy="-306" rx="27" ry="18"/>
<text text-anchor="middle" x="323" y="-302.3" font-family="Times,serif" font-size="14.00">33</text>
</g>
<!-- 33&#45;&#45;1 -->
<g id="edge41" class="edge"><title>33&#45;&#45;1</title>
<path fill="none" stroke="black" d="M309.427,-290.155C298.566,-278.276 283.409,-261.697 272.553,-249.824"/>
</g>
<!-- 33&#45;&#45;7 -->
<g id="edge42" class="edge"><title>33&#45;&#45;7</title>
<path fill="none" stroke="black" d="M348.295,-299.155C401.745,-286.759 522.777,-258.443 541,-252 546.083,-250.203 551.41,-247.923 556.362,-245.621"/>
</g>
<!-- 33&#45;&#45;18 -->
<g id="edge43" class="edge"><title>33&#45;&#45;18</title>
<path fill="none" stroke="black" d="M324.978,-287.697C326.218,-276.846 327.81,-262.917 329.045,-252.104"/>
</g>
<!-- 34 -->
<g id="node35" class="node"><title>34</title>
<ellipse fill="#53bfb5" stroke="#53bfb5" cx="632" cy="-378" rx="27" ry="18"/>
<text text-anchor="middle" x="632" y="-374.3" font-family="Times,serif" font-size="14.00">34</text>
</g>
<!-- 34&#45;&#45;5 -->
<g id="edge44" class="edge"><title>34&#45;&#45;5</title>
<path fill="none" stroke="black" d="M641.963,-361.162C653.24,-343.299 672.228,-313.425 689,-288 697.33,-275.372 706.97,-261.204 714.176,-250.695"/>
</g>
<!-- 34&#45;&#45;31 -->
<g id="edge45" class="edge"><title>34&#45;&#45;31</title>
<path fill="none" stroke="black" d="M620.066,-361.811C610.84,-350.07 598.13,-333.893 588.911,-322.159"/>
</g>
<!-- 35 -->
<g id="node36" class="node"><title>35</title>
<ellipse fill="#426769" stroke="#426769" cx="907" cy="-378" rx="27" ry="18"/>
<text text-anchor="middle" x="907" y="-374.3" font-family="Times,serif" font-size="14.00">35</text>
</g>
<!-- 35&#45;&#45;4 -->
<g id="edge46" class="edge"><title>35&#45;&#45;4</title>
<path fill="none" stroke="black" d="M907.78,-359.999C909.345,-321.47 912.142,-224.59 905,-144 903.929,-131.914 901.625,-118.436 899.616,-108.096"/>
</g>
<!-- 35&#45;&#45;14 -->
<g id="edge47" class="edge"><title>35&#45;&#45;14</title>
<path fill="none" stroke="black" d="M886.515,-365.896C881.558,-363.613 876.189,-361.464 871,-360 729.004,-319.948 682.996,-364.052 541,-324 535.811,-322.536 530.442,-320.387 525.485,-318.104"/>
</g>
<!-- 35&#45;&#45;22 -->
<g id="edge48" class="edge"><title>35&#45;&#45;22</title>
<path fill="none" stroke="black" d="M926.161,-364.807C946.35,-351.959 977.952,-331.848 998.059,-319.053"/>
</g>
<!-- 36 -->
<g id="node37" class="node"><title>36</title>
<ellipse fill="#b0c7ae" stroke="#b0c7ae" cx="1203" cy="-378" rx="27" ry="18"/>
<text text-anchor="middle" x="1203" y="-374.3" font-family="Times,serif" font-size="14.00">36</text>
</g>
<!-- 36&#45;&#45;3 -->
<g id="edge49" class="edge"><title>36&#45;&#45;3</title>
<path fill="none" stroke="black" d="M1219.63,-363.624C1246.38,-340.476 1296,-290.108 1296,-235 1296,-235 1296,-235 1296,-161 1296,-81.4143 1011.23,-35.0377 922.245,-22.488"/>
</g>
<!-- 36&#45;&#45;7 -->
<g id="edge50" class="edge"><title>36&#45;&#45;7</title>
<path fill="none" stroke="black" d="M1186.21,-363.631C1159.68,-343.332 1105.65,-305.276 1053,-288 898.535,-237.319 850.307,-272.205 689,-252 659.533,-248.309 625.861,-243.058 603.197,-239.371"/>
</g>
<!-- 36&#45;&#45;29 -->
<g id="edge51" class="edge"><title>36&#45;&#45;29</title>
<path fill="none" stroke="black" d="M1203,-359.697C1203,-348.846 1203,-334.917 1203,-324.104"/>
</g>
<!-- 37 -->
<g id="node38" class="node"><title>37</title>
<ellipse fill="#4ca7a0" stroke="#4ca7a0" cx="632" cy="-450" rx="27" ry="18"/>
<text text-anchor="middle" x="632" y="-446.3" font-family="Times,serif" font-size="14.00">37</text>
</g>
<!-- 37&#45;&#45;31 -->
<g id="edge52" class="edge"><title>37&#45;&#45;31</title>
<path fill="none" stroke="black" d="M619.252,-433.702C611.441,-423.587 601.852,-409.708 596,-396 585.826,-372.17 580.89,-342.346 578.656,-323.988"/>
</g>
<!-- 37&#45;&#45;32 -->
<g id="edge53" class="edge"><title>37&#45;&#45;32</title>
<path fill="none" stroke="black" d="M646.57,-434.834C658.98,-422.77 676.731,-405.512 689.204,-393.385"/>
</g>
<!-- 37&#45;&#45;34 -->
<g id="edge54" class="edge"><title>37&#45;&#45;34</title>
<path fill="none" stroke="black" d="M632,-431.697C632,-420.846 632,-406.917 632,-396.104"/>
</g>
<!-- 38 -->
<g id="node39" class="node"><title>38</title>
<ellipse fill="#ac3b9b" stroke="#ac3b9b" cx="230" cy="-450" rx="27" ry="18"/>
<text text-anchor="middle" x="230" y="-446.3" font-family="Times,serif" font-size="14.00">38</text>
</g>
<!-- 38&#45;&#45;18 -->
<g id="edge55" class="edge"><title>38&#45;&#45;18</title>
<path fill="none" stroke="black" d="M233.864,-432.182C241.255,-401.944 259.175,-336.987 287,-288 295.033,-273.858 306.949,-259.784 316.355,-249.697"/>
</g>
<!-- 38&#45;&#45;23 -->
<g id="edge56" class="edge"><title>38&#45;&#45;23</title>
<path fill="none" stroke="black" d="M205.606,-442.246C173.096,-433.002 113.975,-415.334 65,-396 60.114,-394.071 54.9562,-391.789 50.1186,-389.534"/>
</g>
<!-- 38&#45;&#45;30 -->
<g id="edge57" class="edge"><title>38&#45;&#45;30</title>
<path fill="none" stroke="black" d="M254.696,-442.284C287.607,-433.081 347.453,-415.46 397,-396 401.889,-394.08 407.049,-391.801 411.886,-389.547"/>
</g>
<!-- 39 -->
<g id="node40" class="node"><title>39</title>
<ellipse fill="#6a9598" stroke="#6a9598" cx="433" cy="-450" rx="27" ry="18"/>
<text text-anchor="middle" x="433" y="-446.3" font-family="Times,serif" font-size="14.00">39</text>
</g>
<!-- 39&#45;&#45;15 -->
<g id="edge58" class="edge"><title>39&#45;&#45;15</title>
<path fill="none" stroke="red" d="M459.365,-445.685C529.448,-436.7 716.624,-411.518 740,-396 766.293,-378.545 782.986,-344.369 791.109,-323.82"/>
</g>
<!-- 39&#45;&#45;23 -->
<g id="edge59" class="edge"><title>39&#45;&#45;23</title>
<path fill="none" stroke="red" d="M406.349,-446.205C333.02,-438.348 129.441,-415.378 65,-396 59.8372,-394.447 54.4784,-392.263 49.5224,-389.975"/>
</g>
<!-- 39&#45;&#45;30 -->
<g id="edge60" class="edge"><title>39&#45;&#45;30</title>
<path fill="none" stroke="black" d="M433,-431.697C433,-420.846 433,-406.917 433,-396.104"/>
</g>
</g>
</svg>
