<?xml version="1.0" encoding="UTF-8" standalone="no"?>
<!DOCTYPE svg PUBLIC "-//W3C//DTD SVG 1.1//EN"
 "http://www.w3.org/Graphics/SVG/1.1/DTD/svg11.dtd">
<!-- Generated by graphviz version 2.38.0 (20140413.2041)
 -->
<!-- Title: example Pages: 1 -->
<svg width="213pt" height="183pt"
 viewBox="0.00 0.00 212.95 183.09" xmlns="http://www.w3.org/2000/svg" xmlns:xlink="http://www.w3.org/1999/xlink">
<g id="graph0" class="graph" transform="scale(1 1) rotate(0) translate(4 179.093)">
<title>example</title>
<polygon fill="white" stroke="none" points="-4,4 -4,-179.093 208.951,-179.093 208.951,4 -4,4"/>
<!-- 1 -->
<g id="node1" class="node"><title>1</title>
<ellipse fill="none" stroke="black" cx="36.3968" cy="-18" rx="34.394" ry="18"/>
<text text-anchor="middle" x="36.3968" y="-14.3" font-family="Times,serif" font-size="14.00">Украл</text>
</g>
<!-- 2 -->
<g id="node2" class="node"><title>2</title>
<ellipse fill="none" stroke="black" cx="36.3968" cy="-157.093" rx="36.2938" ry="18"/>
<text text-anchor="middle" x="36.3968" y="-153.393" font-family="Times,serif" font-size="14.00">Выпил</text>
</g>
<!-- 1&#45;&gt;2 -->
<g id="edge3" class="edge"><title>1&#45;&gt;2</title>
<path fill="none" stroke="black" d="M36.3968,-36.184C36.3968,-59.7172 36.3968,-100.978 36.3968,-128.668"/>
<polygon fill="black" stroke="black" points="32.8969,-128.905 36.3968,-138.905 39.8969,-128.905 32.8969,-128.905"/>
</g>
<!-- 3 -->
<g id="node3" class="node"><title>3</title>
<ellipse fill="none" stroke="black" cx="156.855" cy="-87.5466" rx="48.1917" ry="18"/>
<text text-anchor="middle" x="156.855" y="-83.8466" font-family="Times,serif" font-size="14.00">В тюрьму</text>
</g>
<!-- 2&#45;&gt;3 -->
<g id="edge1" class="edge"><title>2&#45;&gt;3</title>
<path fill="none" stroke="black" d="M60.1954,-143.353C77.7952,-133.192 102.043,-119.192 121.849,-107.757"/>
<polygon fill="black" stroke="black" points="123.686,-110.738 130.597,-102.707 120.186,-104.676 123.686,-110.738"/>
</g>
<!-- 3&#45;&gt;1 -->
<g id="edge2" class="edge"><title>3&#45;&gt;1</title>
<path fill="none" stroke="black" d="M130.42,-72.2843C112.125,-61.7218 87.6796,-47.6082 68.3003,-36.4195"/>
<polygon fill="black" stroke="black" points="69.929,-33.3184 59.5188,-31.3495 66.429,-39.3806 69.929,-33.3184"/>
</g>
</g>
</svg>
