<?xml version="1.0" encoding="UTF-8" standalone="no"?>
<!DOCTYPE svg PUBLIC "-//W3C//DTD SVG 1.1//EN"
 "http://www.w3.org/Graphics/SVG/1.1/DTD/svg11.dtd">
<!-- Generated by graphviz version 2.38.0 (20140413.2041)
 -->
<!-- Title: example Pages: 1 -->
<svg width="913pt" height="332pt"
 viewBox="0.00 0.00 913.00 332.00" xmlns="http://www.w3.org/2000/svg" xmlns:xlink="http://www.w3.org/1999/xlink">
<g id="graph0" class="graph" transform="scale(1 1) rotate(0) translate(4 328)">
<title>example</title>
<polygon fill="white" stroke="none" points="-4,4 -4,-328 909,-328 909,4 -4,4"/>
<!-- 0 -->
<g id="node1" class="node"><title>0</title>
<ellipse fill="#644e6e" stroke="#644e6e" cx="459" cy="-18" rx="27" ry="18"/>
<text text-anchor="middle" x="459" y="-14.3" font-family="Times,serif" font-size="14.00">0</text>
</g>
<!-- 1 -->
<g id="node2" class="node"><title>1</title>
<ellipse fill="#5d813c" stroke="#5d813c" cx="514" cy="-90" rx="27" ry="18"/>
<text text-anchor="middle" x="514" y="-86.3" font-family="Times,serif" font-size="14.00">1</text>
</g>
<!-- 1&#45;&#45;0 -->
<g id="edge1" class="edge"><title>1&#45;&#45;0</title>
<path fill="none" stroke="black" d="M502.066,-73.811C492.84,-62.0697 480.13,-45.8932 470.911,-34.1593"/>
</g>
<!-- 2 -->
<g id="node3" class="node"><title>2</title>
<ellipse fill="#4575ab" stroke="#4575ab" cx="751" cy="-162" rx="27" ry="18"/>
<text text-anchor="middle" x="751" y="-158.3" font-family="Times,serif" font-size="14.00">2</text>
</g>
<!-- 3 -->
<g id="node4" class="node"><title>3</title>
<ellipse fill="#3f7ec7" stroke="#3f7ec7" cx="209" cy="-162" rx="27" ry="18"/>
<text text-anchor="middle" x="209" y="-158.3" font-family="Times,serif" font-size="14.00">3</text>
</g>
<!-- 3&#45;&#45;1 -->
<g id="edge2" class="edge"><title>3&#45;&#45;1</title>
<path fill="none" stroke="black" d="M229.568,-150.172C234.522,-147.879 239.869,-145.654 245,-144 328.88,-116.958 353.7,-125.87 440,-108 456.393,-104.605 474.733,-100.395 489.054,-97.0137"/>
</g>
<!-- 4 -->
<g id="node5" class="node"><title>4</title>
<ellipse fill="#9f9e75" stroke="#9f9e75" cx="696" cy="-18" rx="27" ry="18"/>
<text text-anchor="middle" x="696" y="-14.3" font-family="Times,serif" font-size="14.00">4</text>
</g>
<!-- 5 -->
<g id="node6" class="node"><title>5</title>
<ellipse fill="#663888" stroke="#663888" cx="281" cy="-162" rx="27" ry="18"/>
<text text-anchor="middle" x="281" y="-158.3" font-family="Times,serif" font-size="14.00">5</text>
</g>
<!-- 6 -->
<g id="node7" class="node"><title>6</title>
<ellipse fill="#456d84" stroke="#456d84" cx="641" cy="-90" rx="27" ry="18"/>
<text text-anchor="middle" x="641" y="-86.3" font-family="Times,serif" font-size="14.00">6</text>
</g>
<!-- 6&#45;&#45;4 -->
<g id="edge3" class="edge"><title>6&#45;&#45;4</title>
<path fill="none" stroke="black" d="M652.934,-73.811C662.16,-62.0697 674.87,-45.8932 684.089,-34.1593"/>
</g>
<!-- 7 -->
<g id="node8" class="node"><title>7</title>
<ellipse fill="#4b3b59" stroke="#4b3b59" cx="404" cy="-90" rx="27" ry="18"/>
<text text-anchor="middle" x="404" y="-86.3" font-family="Times,serif" font-size="14.00">7</text>
</g>
<!-- 8 -->
<g id="node9" class="node"><title>8</title>
<ellipse fill="#8892b3" stroke="#8892b3" cx="353" cy="-234" rx="27" ry="18"/>
<text text-anchor="middle" x="353" y="-230.3" font-family="Times,serif" font-size="14.00">8</text>
</g>
<!-- 9 -->
<g id="node10" class="node"><title>9</title>
<ellipse fill="#8f4433" stroke="#8f4433" cx="641" cy="-162" rx="27" ry="18"/>
<text text-anchor="middle" x="641" y="-158.3" font-family="Times,serif" font-size="14.00">9</text>
</g>
<!-- 9&#45;&#45;6 -->
<g id="edge4" class="edge"><title>9&#45;&#45;6</title>
<path fill="none" stroke="black" d="M641,-143.697C641,-132.846 641,-118.917 641,-108.104"/>
</g>
<!-- 10 -->
<g id="node11" class="node"><title>10</title>
<ellipse fill="#c698a6" stroke="#c698a6" cx="120" cy="-162" rx="27" ry="18"/>
<text text-anchor="middle" x="120" y="-158.3" font-family="Times,serif" font-size="14.00">10</text>
</g>
<!-- 11 -->
<g id="node12" class="node"><title>11</title>
<ellipse fill="#8d953e" stroke="#8d953e" cx="459" cy="-162" rx="27" ry="18"/>
<text text-anchor="middle" x="459" y="-158.3" font-family="Times,serif" font-size="14.00">11</text>
</g>
<!-- 11&#45;&#45;0 -->
<g id="edge5" class="edge"><title>11&#45;&#45;0</title>
<path fill="none" stroke="black" d="M459,-143.871C459,-116.578 459,-63.5205 459,-36.1893"/>
</g>
<!-- 11&#45;&#45;7 -->
<g id="edge6" class="edge"><title>11&#45;&#45;7</title>
<path fill="none" stroke="black" d="M447.066,-145.811C437.84,-134.07 425.13,-117.893 415.911,-106.159"/>
</g>
<!-- 12 -->
<g id="node13" class="node"><title>12</title>
<ellipse fill="#50b649" stroke="#50b649" cx="281" cy="-234" rx="27" ry="18"/>
<text text-anchor="middle" x="281" y="-230.3" font-family="Times,serif" font-size="14.00">12</text>
</g>
<!-- 12&#45;&#45;5 -->
<g id="edge7" class="edge"><title>12&#45;&#45;5</title>
<path fill="none" stroke="black" d="M281,-215.697C281,-204.846 281,-190.917 281,-180.104"/>
</g>
<!-- 12&#45;&#45;9 -->
<g id="edge8" class="edge"><title>12&#45;&#45;9</title>
<path fill="none" stroke="black" d="M301.522,-222.025C306.478,-219.737 311.837,-217.552 317,-216 424.502,-183.674 456.646,-200.585 567,-180 583.457,-176.93 601.798,-172.722 616.103,-169.261"/>
</g>
<!-- 13 -->
<g id="node14" class="node"><title>13</title>
<ellipse fill="#a53e4b" stroke="#a53e4b" cx="531" cy="-162" rx="27" ry="18"/>
<text text-anchor="middle" x="531" y="-158.3" font-family="Times,serif" font-size="14.00">13</text>
</g>
<!-- 13&#45;&#45;6 -->
<g id="edge9" class="edge"><title>13&#45;&#45;6</title>
<path fill="none" stroke="black" d="M550.161,-148.807C570.35,-135.959 601.952,-115.848 622.059,-103.053"/>
</g>
<!-- 14 -->
<g id="node15" class="node"><title>14</title>
<ellipse fill="#579640" stroke="#579640" cx="607" cy="-234" rx="27" ry="18"/>
<text text-anchor="middle" x="607" y="-230.3" font-family="Times,serif" font-size="14.00">14</text>
</g>
<!-- 14&#45;&#45;4 -->
<g id="edge10" class="edge"><title>14&#45;&#45;4</title>
<path fill="none" stroke="black" d="M628.54,-222.75C644.727,-213.835 665.94,-199.312 677,-180 703.576,-133.595 701.169,-67.3869 698.162,-36.3327"/>
</g>
<!-- 15 -->
<g id="node16" class="node"><title>15</title>
<ellipse fill="#9cc53c" stroke="#9cc53c" cx="679" cy="-234" rx="27" ry="18"/>
<text text-anchor="middle" x="679" y="-230.3" font-family="Times,serif" font-size="14.00">15</text>
</g>
<!-- 15&#45;&#45;2 -->
<g id="edge11" class="edge"><title>15&#45;&#45;2</title>
<path fill="none" stroke="black" d="M693.57,-218.834C705.98,-206.77 723.731,-189.512 736.204,-177.385"/>
</g>
<!-- 16 -->
<g id="node17" class="node"><title>16</title>
<ellipse fill="#5b3564" stroke="#5b3564" cx="27" cy="-234" rx="27" ry="18"/>
<text text-anchor="middle" x="27" y="-230.3" font-family="Times,serif" font-size="14.00">16</text>
</g>
<!-- 16&#45;&#45;0 -->
<g id="edge12" class="edge"><title>16&#45;&#45;0</title>
<path fill="none" stroke="black" d="M26.2664,-215.928C26.3693,-196.085 29.6405,-163.565 48,-144 154.026,-31.0147 358.639,-19.0885 432.002,-18.6066"/>
</g>
<!-- 16&#45;&#45;7 -->
<g id="edge13" class="edge"><title>16&#45;&#45;7</title>
<path fill="none" stroke="black" d="M32.8717,-216.151C40.9754,-195.572 57.6474,-161.365 84,-144 132.314,-112.163 309.264,-97.2869 377.196,-92.6569"/>
</g>
<!-- 16&#45;&#45;10 -->
<g id="edge14" class="edge"><title>16&#45;&#45;10</title>
<path fill="none" stroke="black" d="M44.4926,-219.834C61.1195,-207.319 85.9849,-188.603 102.586,-176.107"/>
</g>
<!-- 17 -->
<g id="node18" class="node"><title>17</title>
<ellipse fill="#9c82b0" stroke="#9c82b0" cx="823" cy="-162" rx="27" ry="18"/>
<text text-anchor="middle" x="823" y="-158.3" font-family="Times,serif" font-size="14.00">17</text>
</g>
<!-- 17&#45;&#45;4 -->
<g id="edge15" class="edge"><title>17&#45;&#45;4</title>
<path fill="none" stroke="black" d="M809.649,-146.072C785.194,-118.728 733.494,-60.9222 709.172,-33.7281"/>
</g>
<!-- 18 -->
<g id="node19" class="node"><title>18</title>
<ellipse fill="#9650bf" stroke="#9650bf" cx="399" cy="-306" rx="27" ry="18"/>
<text text-anchor="middle" x="399" y="-302.3" font-family="Times,serif" font-size="14.00">18</text>
</g>
<!-- 18&#45;&#45;7 -->
<g id="edge16" class="edge"><title>18&#45;&#45;7</title>
<path fill="none" stroke="black" d="M399.401,-287.849C400.337,-247.78 402.659,-148.383 403.597,-108.232"/>
</g>
<!-- 18&#45;&#45;8 -->
<g id="edge17" class="edge"><title>18&#45;&#45;8</title>
<path fill="none" stroke="black" d="M388.562,-289.116C381.034,-277.66 370.915,-262.263 363.397,-250.821"/>
</g>
<!-- 18&#45;&#45;14 -->
<g id="edge18" class="edge"><title>18&#45;&#45;14</title>
<path fill="none" stroke="black" d="M420.047,-294.277C424.888,-292.031 430.065,-289.801 435,-288 493.736,-266.561 512.264,-273.439 571,-252 575.935,-250.199 581.112,-247.969 585.953,-245.723"/>
</g>
<!-- 19 -->
<g id="node20" class="node"><title>19</title>
<ellipse fill="#be418c" stroke="#be418c" cx="463" cy="-234" rx="27" ry="18"/>
<text text-anchor="middle" x="463" y="-230.3" font-family="Times,serif" font-size="14.00">19</text>
</g>
<!-- 19&#45;&#45;5 -->
<g id="edge19" class="edge"><title>19&#45;&#45;5</title>
<path fill="none" stroke="black" d="M439.95,-224.134C404.941,-210.67 338.76,-185.215 303.863,-171.794"/>
</g>
<!-- 19&#45;&#45;13 -->
<g id="edge20" class="edge"><title>19&#45;&#45;13</title>
<path fill="none" stroke="black" d="M477.09,-218.496C488.76,-206.482 505.263,-189.494 516.928,-177.485"/>
</g>
<!-- 20 -->
<g id="node21" class="node"><title>20</title>
<ellipse fill="#7cc351" stroke="#7cc351" cx="209" cy="-234" rx="27" ry="18"/>
<text text-anchor="middle" x="209" y="-230.3" font-family="Times,serif" font-size="14.00">20</text>
</g>
<!-- 20&#45;&#45;3 -->
<g id="edge21" class="edge"><title>20&#45;&#45;3</title>
<path fill="none" stroke="black" d="M209,-215.697C209,-204.846 209,-190.917 209,-180.104"/>
</g>
<!-- 21 -->
<g id="node22" class="node"><title>21</title>
<ellipse fill="#3da338" stroke="#3da338" cx="137" cy="-234" rx="27" ry="18"/>
<text text-anchor="middle" x="137" y="-230.3" font-family="Times,serif" font-size="14.00">21</text>
</g>
<!-- 21&#45;&#45;3 -->
<g id="edge22" class="edge"><title>21&#45;&#45;3</title>
<path fill="none" stroke="black" d="M151.57,-218.834C163.98,-206.77 181.731,-189.512 194.204,-177.385"/>
</g>
<!-- 21&#45;&#45;5 -->
<g id="edge23" class="edge"><title>21&#45;&#45;5</title>
<path fill="none" stroke="black" d="M158.248,-222.671C185.473,-209.437 232.398,-186.626 259.665,-173.371"/>
</g>
<!-- 21&#45;&#45;10 -->
<g id="edge24" class="edge"><title>21&#45;&#45;10</title>
<path fill="none" stroke="black" d="M132.885,-216.055C130.251,-205.211 126.844,-191.183 124.195,-180.275"/>
</g>
<!-- 22 -->
<g id="node23" class="node"><title>22</title>
<ellipse fill="#51993d" stroke="#51993d" cx="281" cy="-306" rx="27" ry="18"/>
<text text-anchor="middle" x="281" y="-302.3" font-family="Times,serif" font-size="14.00">22</text>
</g>
<!-- 22&#45;&#45;8 -->
<g id="edge25" class="edge"><title>22&#45;&#45;8</title>
<path fill="none" stroke="black" d="M295.57,-290.834C307.98,-278.77 325.731,-261.512 338.204,-249.385"/>
</g>
<!-- 22&#45;&#45;12 -->
<g id="edge26" class="edge"><title>22&#45;&#45;12</title>
<path fill="none" stroke="black" d="M281,-287.697C281,-276.846 281,-262.917 281,-252.104"/>
</g>
<!-- 22&#45;&#45;20 -->
<g id="edge27" class="edge"><title>22&#45;&#45;20</title>
<path fill="none" stroke="black" d="M266.43,-290.834C254.02,-278.77 236.269,-261.512 223.796,-249.385"/>
</g>
<!-- 23 -->
<g id="node24" class="node"><title>23</title>
<ellipse fill="#386740" stroke="#386740" cx="751" cy="-234" rx="27" ry="18"/>
<text text-anchor="middle" x="751" y="-230.3" font-family="Times,serif" font-size="14.00">23</text>
</g>
<!-- 23&#45;&#45;2 -->
<g id="edge28" class="edge"><title>23&#45;&#45;2</title>
<path fill="none" stroke="black" d="M751,-215.697C751,-204.846 751,-190.917 751,-180.104"/>
</g>
<!-- 23&#45;&#45;9 -->
<g id="edge29" class="edge"><title>23&#45;&#45;9</title>
<path fill="none" stroke="black" d="M731.839,-220.807C711.65,-207.959 680.048,-187.848 659.941,-175.053"/>
</g>
<!-- 24 -->
<g id="node25" class="node"><title>24</title>
<ellipse fill="#3ec4c7" stroke="#3ec4c7" cx="535" cy="-234" rx="27" ry="18"/>
<text text-anchor="middle" x="535" y="-230.3" font-family="Times,serif" font-size="14.00">24</text>
</g>
<!-- 24&#45;&#45;1 -->
<g id="edge30" class="edge"><title>24&#45;&#45;1</title>
<path fill="none" stroke="black" d="M547.486,-217.715C560.476,-199.85 577.556,-169.485 567,-144 560.028,-127.169 544.831,-112.896 532.49,-103.417"/>
</g>
<!-- 24&#45;&#45;11 -->
<g id="edge31" class="edge"><title>24&#45;&#45;11</title>
<path fill="none" stroke="black" d="M519.62,-218.834C506.435,-206.69 487.536,-189.283 474.357,-177.144"/>
</g>
<!-- 24&#45;&#45;13 -->
<g id="edge32" class="edge"><title>24&#45;&#45;13</title>
<path fill="none" stroke="black" d="M534.011,-215.697C533.391,-204.846 532.595,-190.917 531.977,-180.104"/>
</g>
<!-- 25 -->
<g id="node26" class="node"><title>25</title>
<ellipse fill="#884363" stroke="#884363" cx="471" cy="-306" rx="27" ry="18"/>
<text text-anchor="middle" x="471" y="-302.3" font-family="Times,serif" font-size="14.00">25</text>
</g>
<!-- 25&#45;&#45;8 -->
<g id="edge33" class="edge"><title>25&#45;&#45;8</title>
<path fill="none" stroke="black" d="M451.515,-293.441C429.651,-280.471 394.39,-259.553 372.514,-246.576"/>
</g>
<!-- 25&#45;&#45;14 -->
<g id="edge34" class="edge"><title>25&#45;&#45;14</title>
<path fill="none" stroke="black" d="M491.655,-294.369C517.217,-281.212 560.499,-258.934 586.15,-245.732"/>
</g>
<!-- 25&#45;&#45;19 -->
<g id="edge35" class="edge"><title>25&#45;&#45;19</title>
<path fill="none" stroke="black" d="M469.022,-287.697C467.782,-276.846 466.19,-262.917 464.955,-252.104"/>
</g>
<!-- 26 -->
<g id="node27" class="node"><title>26</title>
<ellipse fill="#67845e" stroke="#67845e" cx="878" cy="-306" rx="27" ry="18"/>
<text text-anchor="middle" x="878" y="-302.3" font-family="Times,serif" font-size="14.00">26</text>
</g>
<!-- 26&#45;&#45;2 -->
<g id="edge36" class="edge"><title>26&#45;&#45;2</title>
<path fill="none" stroke="black" d="M878.592,-287.752C878.369,-268.34 875.228,-236.804 859,-216 857.535,-214.122 803.272,-187.986 772.233,-173.133"/>
</g>
<!-- 26&#45;&#45;17 -->
<g id="edge37" class="edge"><title>26&#45;&#45;17</title>
<path fill="none" stroke="black" d="M886.087,-288.704C894.071,-270.165 903.547,-239.43 892,-216 882.251,-196.218 861.179,-181.762 844.871,-172.99"/>
</g>
<!-- 26&#45;&#45;23 -->
<g id="edge38" class="edge"><title>26&#45;&#45;23</title>
<path fill="none" stroke="black" d="M857.876,-293.908C834.236,-280.878 795.231,-259.379 771.45,-246.272"/>
</g>
<!-- 27 -->
<g id="node28" class="node"><title>27</title>
<ellipse fill="#7d7e42" stroke="#7d7e42" cx="209" cy="-306" rx="27" ry="18"/>
<text text-anchor="middle" x="209" y="-302.3" font-family="Times,serif" font-size="14.00">27</text>
</g>
<!-- 27&#45;&#45;10 -->
<g id="edge39" class="edge"><title>27&#45;&#45;10</title>
<path fill="none" stroke="black" d="M183.248,-300.425C157.391,-294.312 118.895,-280.716 101,-252 86.878,-229.339 99.6818,-197.811 110.015,-178.999"/>
</g>
<!-- 27&#45;&#45;15 -->
<g id="edge40" class="edge"><title>27&#45;&#45;15</title>
<path fill="none" stroke="black" d="M229.466,-293.826C234.424,-291.547 239.798,-289.416 245,-288 416.379,-241.363 471.621,-298.637 643,-252 648.202,-250.584 653.576,-248.453 658.534,-246.174"/>
</g>
<!-- 27&#45;&#45;20 -->
<g id="edge41" class="edge"><title>27&#45;&#45;20</title>
<path fill="none" stroke="black" d="M209,-287.697C209,-276.846 209,-262.917 209,-252.104"/>
</g>
<!-- 28 -->
<g id="node29" class="node"><title>28</title>
<ellipse fill="#7b5577" stroke="#7b5577" cx="823" cy="-234" rx="27" ry="18"/>
<text text-anchor="middle" x="823" y="-230.3" font-family="Times,serif" font-size="14.00">28</text>
</g>
<!-- 28&#45;&#45;17 -->
<g id="edge42" class="edge"><title>28&#45;&#45;17</title>
<path fill="none" stroke="black" d="M823,-215.697C823,-204.846 823,-190.917 823,-180.104"/>
</g>
<!-- 29 -->
<g id="node30" class="node"><title>29</title>
<ellipse fill="#347976" stroke="#347976" cx="742" cy="-306" rx="27" ry="18"/>
<text text-anchor="middle" x="742" y="-302.3" font-family="Times,serif" font-size="14.00">29</text>
</g>
<!-- 29&#45;&#45;15 -->
<g id="edge43" class="edge"><title>29&#45;&#45;15</title>
<path fill="none" stroke="black" d="M728.639,-290.155C717.948,-278.276 703.028,-261.697 692.341,-249.824"/>
</g>
<!-- 29&#45;&#45;28 -->
<g id="edge44" class="edge"><title>29&#45;&#45;28</title>
<path fill="none" stroke="black" d="M758.003,-291.17C772.203,-278.898 792.84,-261.064 807.03,-248.801"/>
</g>
</g>
</svg>
