<?xml version="1.0" encoding="UTF-8" standalone="no"?>
<!DOCTYPE svg PUBLIC "-//W3C//DTD SVG 1.1//EN"
 "http://www.w3.org/Graphics/SVG/1.1/DTD/svg11.dtd">
<!-- Generated by graphviz version 2.38.0 (20140413.2041)
 -->
<!-- Title: %3 Pages: 1 -->
<svg width="1069pt" height="404pt"
 viewBox="0.00 0.00 1068.53 404.00" xmlns="http://www.w3.org/2000/svg" xmlns:xlink="http://www.w3.org/1999/xlink">
<g id="graph0" class="graph" transform="scale(1 1) rotate(0) translate(4 400)">
<title>%3</title>
<polygon fill="white" stroke="none" points="-4,4 -4,-400 1064.53,-400 1064.53,4 -4,4"/>
<!-- 0 -->
<g id="node1" class="node"><title>0</title>
<ellipse fill="#854c82" stroke="#854c82" cx="145.527" cy="-162" rx="27" ry="18"/>
<text text-anchor="middle" x="145.527" y="-158.3" font-family="Times,serif" font-size="14.00">0</text>
</g>
<!-- 1 -->
<g id="node2" class="node"><title>1</title>
<ellipse fill="#a935ad" stroke="#a935ad" cx="39.5271" cy="-162" rx="27" ry="18"/>
<text text-anchor="middle" x="39.5271" y="-158.3" font-family="Times,serif" font-size="14.00">1</text>
</g>
<!-- 2 -->
<g id="node3" class="node"><title>2</title>
<ellipse fill="#717373" stroke="#717373" cx="327.527" cy="-162" rx="27" ry="18"/>
<text text-anchor="middle" x="327.527" y="-158.3" font-family="Times,serif" font-size="14.00">2</text>
</g>
<!-- 3 -->
<g id="node4" class="node"><title>3</title>
<ellipse fill="#41c09f" stroke="#41c09f" cx="409.527" cy="-18" rx="27" ry="18"/>
<text text-anchor="middle" x="409.527" y="-14.3" font-family="Times,serif" font-size="14.00">3</text>
</g>
<!-- 4 -->
<g id="node5" class="node"><title>4</title>
<ellipse fill="#bd8b3b" stroke="#bd8b3b" cx="815.527" cy="-162" rx="27" ry="18"/>
<text text-anchor="middle" x="815.527" y="-158.3" font-family="Times,serif" font-size="14.00">4</text>
</g>
<!-- 5 -->
<g id="node6" class="node"><title>5</title>
<ellipse fill="#91663b" stroke="#91663b" cx="652.527" cy="-234" rx="27" ry="18"/>
<text text-anchor="middle" x="652.527" y="-230.3" font-family="Times,serif" font-size="14.00">5</text>
</g>
<!-- 5&#45;&#45;4 -->
<g id="edge1" class="edge"><title>5&#45;&#45;4</title>
<path fill="none" stroke="black" d="M673.744,-222.703C678.576,-220.436 683.707,-218.089 688.527,-216 728.435,-198.705 739.619,-197.295 779.527,-180 784.347,-177.911 789.478,-175.564 794.31,-173.297"/>
</g>
<!-- 6 -->
<g id="node7" class="node"><title>6</title>
<ellipse fill="#715f42" stroke="#715f42" cx="39.5271" cy="-234" rx="27" ry="18"/>
<text text-anchor="middle" x="39.5271" y="-230.3" font-family="Times,serif" font-size="14.00">6</text>
</g>
<!-- 6&#45;&#45;0 -->
<g id="edge2" class="edge"><title>6&#45;&#45;0</title>
<path fill="none" stroke="black" d="M57.9909,-220.807C77.3278,-208.037 107.529,-188.093 126.919,-175.288"/>
</g>
<!-- 6&#45;&#45;1 -->
<g id="edge3" class="edge"><title>6&#45;&#45;1</title>
<path fill="none" stroke="black" d="M39.5271,-215.697C39.5271,-204.846 39.5271,-190.917 39.5271,-180.104"/>
</g>
<!-- 7 -->
<g id="node8" class="node"><title>7</title>
<ellipse fill="#94547b" stroke="#94547b" cx="409.527" cy="-90" rx="27" ry="18"/>
<text text-anchor="middle" x="409.527" y="-86.3" font-family="Times,serif" font-size="14.00">7</text>
</g>
<!-- 7&#45;&#45;3 -->
<g id="edge4" class="edge"><title>7&#45;&#45;3</title>
<path fill="none" stroke="black" d="M409.527,-71.6966C409.527,-60.8463 409.527,-46.9167 409.527,-36.1043"/>
</g>
<!-- 8 -->
<g id="node9" class="node"><title>8</title>
<ellipse fill="#7e557b" stroke="#7e557b" cx="255.527" cy="-162" rx="27" ry="18"/>
<text text-anchor="middle" x="255.527" y="-158.3" font-family="Times,serif" font-size="14.00">8</text>
</g>
<!-- 9 -->
<g id="node10" class="node"><title>9</title>
<ellipse fill="#366676" stroke="#366676" cx="111.527" cy="-234" rx="27" ry="18"/>
<text text-anchor="middle" x="111.527" y="-230.3" font-family="Times,serif" font-size="14.00">9</text>
</g>
<!-- 9&#45;&#45;1 -->
<g id="edge5" class="edge"><title>9&#45;&#45;1</title>
<path fill="none" stroke="black" d="M96.9568,-218.834C84.5473,-206.77 66.7965,-189.512 54.3228,-177.385"/>
</g>
<!-- 9&#45;&#45;8 -->
<g id="edge6" class="edge"><title>9&#45;&#45;8</title>
<path fill="none" stroke="black" d="M132.775,-222.671C160,-209.437 206.925,-186.626 234.192,-173.371"/>
</g>
<!-- 10 -->
<g id="node11" class="node"><title>10</title>
<ellipse fill="#925855" stroke="#925855" cx="906.527" cy="-90" rx="27" ry="18"/>
<text text-anchor="middle" x="906.527" y="-86.3" font-family="Times,serif" font-size="14.00">10</text>
</g>
<!-- 11 -->
<g id="node12" class="node"><title>11</title>
<ellipse fill="#32453b" stroke="#32453b" cx="547.527" cy="-162" rx="27" ry="18"/>
<text text-anchor="middle" x="547.527" y="-158.3" font-family="Times,serif" font-size="14.00">11</text>
</g>
<!-- 12 -->
<g id="node13" class="node"><title>12</title>
<ellipse fill="#9a3784" stroke="#9a3784" cx="743.527" cy="-162" rx="27" ry="18"/>
<text text-anchor="middle" x="743.527" y="-158.3" font-family="Times,serif" font-size="14.00">12</text>
</g>
<!-- 12&#45;&#45;10 -->
<g id="edge7" class="edge"><title>12&#45;&#45;10</title>
<path fill="none" stroke="black" d="M764.773,-150.77C769.604,-148.499 774.727,-146.134 779.527,-144 815.768,-127.891 858.409,-110.388 883.911,-100.073"/>
</g>
<!-- 13 -->
<g id="node14" class="node"><title>13</title>
<ellipse fill="#c2443d" stroke="#c2443d" cx="183.527" cy="-234" rx="27" ry="18"/>
<text text-anchor="middle" x="183.527" y="-230.3" font-family="Times,serif" font-size="14.00">13</text>
</g>
<!-- 13&#45;&#45;0 -->
<g id="edge8" class="edge"><title>13&#45;&#45;0</title>
<path fill="none" stroke="black" d="M174.714,-216.765C168.575,-205.456 160.421,-190.437 154.293,-179.147"/>
</g>
<!-- 13&#45;&#45;2 -->
<g id="edge9" class="edge"><title>13&#45;&#45;2</title>
<path fill="none" stroke="black" d="M204.775,-222.671C232,-209.437 278.925,-186.626 306.192,-173.371"/>
</g>
<!-- 13&#45;&#45;3 -->
<g id="edge10" class="edge"><title>13&#45;&#45;3</title>
<path fill="none" stroke="black" d="M187.157,-216.014C191.938,-196.842 201.882,-165.527 219.527,-144 266.835,-86.2855 347.851,-45.6576 387.018,-28.3448"/>
</g>
<!-- 14 -->
<g id="node15" class="node"><title>14</title>
<ellipse fill="#63845e" stroke="#63845e" cx="978.527" cy="-234" rx="27" ry="18"/>
<text text-anchor="middle" x="978.527" y="-230.3" font-family="Times,serif" font-size="14.00">14</text>
</g>
<!-- 15 -->
<g id="node16" class="node"><title>15</title>
<ellipse fill="#42c247" stroke="#42c247" cx="437.527" cy="-162" rx="27" ry="18"/>
<text text-anchor="middle" x="437.527" y="-158.3" font-family="Times,serif" font-size="14.00">15</text>
</g>
<!-- 15&#45;&#45;7 -->
<g id="edge11" class="edge"><title>15&#45;&#45;7</title>
<path fill="none" stroke="black" d="M430.891,-144.411C426.428,-133.252 420.569,-118.604 416.115,-107.47"/>
</g>
<!-- 16 -->
<g id="node17" class="node"><title>16</title>
<ellipse fill="#5da9a8" stroke="#5da9a8" cx="382.527" cy="-306" rx="27" ry="18"/>
<text text-anchor="middle" x="382.527" y="-302.3" font-family="Times,serif" font-size="14.00">16</text>
</g>
<!-- 16&#45;&#45;5 -->
<g id="edge12" class="edge"><title>16&#45;&#45;5</title>
<path fill="none" stroke="black" d="M405.905,-296.692C414.796,-293.709 425.062,-290.474 434.527,-288 514.304,-267.151 538.211,-277.799 616.527,-252 621.648,-250.313 626.99,-248.076 631.943,-245.781"/>
</g>
<!-- 16&#45;&#45;7 -->
<g id="edge13" class="edge"><title>16&#45;&#45;7</title>
<path fill="none" stroke="black" d="M384.396,-287.585C387.609,-258.026 394.514,-196.163 401.527,-144 403.139,-132.011 405.177,-118.531 406.792,-108.166"/>
</g>
<!-- 16&#45;&#45;9 -->
<g id="edge14" class="edge"><title>16&#45;&#45;9</title>
<path fill="none" stroke="black" d="M356.278,-301.015C312.296,-293.913 221.281,-277.386 147.527,-252 142.429,-250.245 137.096,-247.982 132.144,-245.682"/>
</g>
<!-- 17 -->
<g id="node18" class="node"><title>17</title>
<ellipse fill="#73815d" stroke="#73815d" cx="255.527" cy="-234" rx="27" ry="18"/>
<text text-anchor="middle" x="255.527" y="-230.3" font-family="Times,serif" font-size="14.00">17</text>
</g>
<!-- 17&#45;&#45;0 -->
<g id="edge15" class="edge"><title>17&#45;&#45;0</title>
<path fill="none" stroke="black" d="M236.367,-220.807C216.177,-207.959 184.575,-187.848 164.468,-175.053"/>
</g>
<!-- 17&#45;&#45;2 -->
<g id="edge16" class="edge"><title>17&#45;&#45;2</title>
<path fill="none" stroke="black" d="M270.097,-218.834C282.507,-206.77 300.258,-189.512 312.731,-177.385"/>
</g>
<!-- 17&#45;&#45;8 -->
<g id="edge17" class="edge"><title>17&#45;&#45;8</title>
<path fill="none" stroke="black" d="M255.527,-215.697C255.527,-204.846 255.527,-190.917 255.527,-180.104"/>
</g>
<!-- 18 -->
<g id="node19" class="node"><title>18</title>
<ellipse fill="#45873d" stroke="#45873d" cx="724.527" cy="-234" rx="27" ry="18"/>
<text text-anchor="middle" x="724.527" y="-230.3" font-family="Times,serif" font-size="14.00">18</text>
</g>
<!-- 18&#45;&#45;15 -->
<g id="edge18" class="edge"><title>18&#45;&#45;15</title>
<path fill="none" stroke="black" d="M703.937,-222.239C698.984,-219.943 693.643,-217.701 688.527,-216 612.348,-190.678 589.986,-196.988 511.527,-180 495.165,-176.457 476.825,-172.246 462.497,-168.901"/>
</g>
<!-- 19 -->
<g id="node20" class="node"><title>19</title>
<ellipse fill="#9343a3" stroke="#9343a3" cx="906.527" cy="-234" rx="27" ry="18"/>
<text text-anchor="middle" x="906.527" y="-230.3" font-family="Times,serif" font-size="14.00">19</text>
</g>
<!-- 19&#45;&#45;10 -->
<g id="edge19" class="edge"><title>19&#45;&#45;10</title>
<path fill="none" stroke="black" d="M906.527,-215.871C906.527,-188.578 906.527,-135.52 906.527,-108.189"/>
</g>
<!-- 19&#45;&#45;12 -->
<g id="edge20" class="edge"><title>19&#45;&#45;12</title>
<path fill="none" stroke="black" d="M885.31,-222.703C880.478,-220.436 875.347,-218.089 870.527,-216 830.619,-198.705 819.435,-197.295 779.527,-180 774.707,-177.911 769.576,-175.564 764.744,-173.297"/>
</g>
<!-- 20 -->
<g id="node21" class="node"><title>20</title>
<ellipse fill="#7195b6" stroke="#7195b6" cx="834.527" cy="-234" rx="27" ry="18"/>
<text text-anchor="middle" x="834.527" y="-230.3" font-family="Times,serif" font-size="14.00">20</text>
</g>
<!-- 20&#45;&#45;11 -->
<g id="edge21" class="edge"><title>20&#45;&#45;11</title>
<path fill="none" stroke="black" d="M809.56,-226.91C755.282,-213.672 627.052,-182.396 572.641,-169.125"/>
</g>
<!-- 21 -->
<g id="node22" class="node"><title>21</title>
<ellipse fill="#909237" stroke="#909237" cx="1033.53" cy="-306" rx="27" ry="18"/>
<text text-anchor="middle" x="1033.53" y="-302.3" font-family="Times,serif" font-size="14.00">21</text>
</g>
<!-- 21&#45;&#45;4 -->
<g id="edge22" class="edge"><title>21&#45;&#45;4</title>
<path fill="none" stroke="black" d="M1034.81,-287.853C1035.32,-267.936 1032.93,-235.346 1014.53,-216 990.809,-191.067 890.24,-173.663 841.807,-166.563"/>
</g>
<!-- 21&#45;&#45;10 -->
<g id="edge23" class="edge"><title>21&#45;&#45;10</title>
<path fill="none" stroke="black" d="M1038.18,-288.155C1042.38,-269.659 1046.52,-239.471 1036.53,-216 1013.96,-162.993 956.675,-121.608 926.237,-102.523"/>
</g>
<!-- 21&#45;&#45;14 -->
<g id="edge24" class="edge"><title>21&#45;&#45;14</title>
<path fill="none" stroke="black" d="M1021.59,-289.811C1012.37,-278.07 999.657,-261.893 990.438,-250.159"/>
</g>
<!-- 22 -->
<g id="node23" class="node"><title>22</title>
<ellipse fill="#5f8b57" stroke="#5f8b57" cx="580.527" cy="-234" rx="27" ry="18"/>
<text text-anchor="middle" x="580.527" y="-230.3" font-family="Times,serif" font-size="14.00">22</text>
</g>
<!-- 22&#45;&#45;12 -->
<g id="edge25" class="edge"><title>22&#45;&#45;12</title>
<path fill="none" stroke="black" d="M601.773,-222.77C606.604,-220.499 611.727,-218.134 616.527,-216 652.768,-199.891 695.409,-182.388 720.911,-172.073"/>
</g>
<!-- 23 -->
<g id="node24" class="node"><title>23</title>
<ellipse fill="#41a6a2" stroke="#41a6a2" cx="643.527" cy="-306" rx="27" ry="18"/>
<text text-anchor="middle" x="643.527" y="-302.3" font-family="Times,serif" font-size="14.00">23</text>
</g>
<!-- 23&#45;&#45;18 -->
<g id="edge26" class="edge"><title>23&#45;&#45;18</title>
<path fill="none" stroke="black" d="M659.53,-291.17C673.73,-278.898 694.367,-261.064 708.557,-248.801"/>
</g>
<!-- 23&#45;&#45;22 -->
<g id="edge27" class="edge"><title>23&#45;&#45;22</title>
<path fill="none" stroke="black" d="M630.166,-290.155C619.475,-278.276 604.555,-261.697 593.869,-249.824"/>
</g>
<!-- 24 -->
<g id="node25" class="node"><title>24</title>
<ellipse fill="#629447" stroke="#629447" cx="470.527" cy="-306" rx="27" ry="18"/>
<text text-anchor="middle" x="470.527" y="-302.3" font-family="Times,serif" font-size="14.00">24</text>
</g>
<!-- 24&#45;&#45;3 -->
<g id="edge28" class="edge"><title>24&#45;&#45;3</title>
<path fill="none" stroke="black" d="M473.101,-287.89C477.057,-258.271 483.218,-195.657 473.527,-144 467.196,-110.254 461.497,-102.395 445.527,-72 438.594,-58.8052 429.056,-44.9024 421.539,-34.648"/>
</g>
<!-- 24&#45;&#45;5 -->
<g id="edge29" class="edge"><title>24&#45;&#45;5</title>
<path fill="none" stroke="black" d="M494.303,-297.129C523.415,-287.319 574.086,-269.679 616.527,-252 621.376,-249.98 626.519,-247.661 631.354,-245.399"/>
</g>
<!-- 24&#45;&#45;15 -->
<g id="edge30" class="edge"><title>24&#45;&#45;15</title>
<path fill="none" stroke="black" d="M466.612,-288.153C460.261,-260.824 447.785,-207.14 441.437,-179.825"/>
</g>
<!-- 25 -->
<g id="node26" class="node"><title>25</title>
<ellipse fill="#667a47" stroke="#667a47" cx="779.527" cy="-306" rx="27" ry="18"/>
<text text-anchor="middle" x="779.527" y="-302.3" font-family="Times,serif" font-size="14.00">25</text>
</g>
<!-- 25&#45;&#45;4 -->
<g id="edge31" class="edge"><title>25&#45;&#45;4</title>
<path fill="none" stroke="black" d="M782.666,-287.817C786.08,-269.803 791.938,-240.733 798.527,-216 801.811,-203.675 806.228,-189.969 809.737,-179.583"/>
</g>
<!-- 25&#45;&#45;18 -->
<g id="edge32" class="edge"><title>25&#45;&#45;18</title>
<path fill="none" stroke="black" d="M767.593,-289.811C758.368,-278.07 745.657,-261.893 736.438,-250.159"/>
</g>
<!-- 25&#45;&#45;20 -->
<g id="edge33" class="edge"><title>25&#45;&#45;20</title>
<path fill="none" stroke="black" d="M791.461,-289.811C800.687,-278.07 813.397,-261.893 822.616,-250.159"/>
</g>
<!-- 26 -->
<g id="node27" class="node"><title>26</title>
<ellipse fill="#b16794" stroke="#b16794" cx="643.527" cy="-378" rx="27" ry="18"/>
<text text-anchor="middle" x="643.527" y="-374.3" font-family="Times,serif" font-size="14.00">26</text>
</g>
<!-- 26&#45;&#45;11 -->
<g id="edge34" class="edge"><title>26&#45;&#45;11</title>
<path fill="none" stroke="black" d="M627.255,-363.285C603.667,-342.215 560.997,-299.322 544.527,-252 536.193,-228.054 539.768,-198.263 543.414,-179.944"/>
</g>
<!-- 26&#45;&#45;14 -->
<g id="edge35" class="edge"><title>26&#45;&#45;14</title>
<path fill="none" stroke="black" d="M670.354,-375.518C735.686,-371.408 900.746,-357.851 942.527,-324 964.672,-306.058 973.296,-272.375 976.58,-251.986"/>
</g>
<!-- 26&#45;&#45;23 -->
<g id="edge36" class="edge"><title>26&#45;&#45;23</title>
<path fill="none" stroke="black" d="M643.527,-359.697C643.527,-348.846 643.527,-334.917 643.527,-324.104"/>
</g>
<!-- 27 -->
<g id="node28" class="node"><title>27</title>
<ellipse fill="#607989" stroke="#607989" cx="906.527" cy="-306" rx="27" ry="18"/>
<text text-anchor="middle" x="906.527" y="-302.3" font-family="Times,serif" font-size="14.00">27</text>
</g>
<!-- 27&#45;&#45;14 -->
<g id="edge37" class="edge"><title>27&#45;&#45;14</title>
<path fill="none" stroke="black" d="M921.097,-290.834C933.507,-278.77 951.258,-261.512 963.731,-249.385"/>
</g>
<!-- 27&#45;&#45;19 -->
<g id="edge38" class="edge"><title>27&#45;&#45;19</title>
<path fill="none" stroke="black" d="M906.527,-287.697C906.527,-276.846 906.527,-262.917 906.527,-252.104"/>
</g>
<!-- 27&#45;&#45;20 -->
<g id="edge39" class="edge"><title>27&#45;&#45;20</title>
<path fill="none" stroke="black" d="M891.957,-290.834C879.547,-278.77 861.796,-261.512 849.323,-249.385"/>
</g>
<!-- 28 -->
<g id="node29" class="node"><title>28</title>
<ellipse fill="#8549ac" stroke="#8549ac" cx="327.527" cy="-234" rx="27" ry="18"/>
<text text-anchor="middle" x="327.527" y="-230.3" font-family="Times,serif" font-size="14.00">28</text>
</g>
<!-- 28&#45;&#45;2 -->
<g id="edge40" class="edge"><title>28&#45;&#45;2</title>
<path fill="none" stroke="black" d="M327.527,-215.697C327.527,-204.846 327.527,-190.917 327.527,-180.104"/>
</g>
<!-- 28&#45;&#45;8 -->
<g id="edge41" class="edge"><title>28&#45;&#45;8</title>
<path fill="none" stroke="black" d="M312.957,-218.834C300.547,-206.77 282.796,-189.512 270.323,-177.385"/>
</g>
<!-- 28&#45;&#45;11 -->
<g id="edge42" class="edge"><title>28&#45;&#45;11</title>
<path fill="none" stroke="black" d="M351.49,-225.376C393.809,-211.91 481.296,-184.073 523.594,-170.615"/>
</g>
<!-- 29 -->
<g id="node30" class="node"><title>29</title>
<ellipse fill="#94c25b" stroke="#94c25b" cx="39.5271" cy="-306" rx="27" ry="18"/>
<text text-anchor="middle" x="39.5271" y="-302.3" font-family="Times,serif" font-size="14.00">29</text>
</g>
<!-- 29&#45;&#45;1 -->
<g id="edge43" class="edge"><title>29&#45;&#45;1</title>
<path fill="none" stroke="black" d="M25.7767,-290.069C17.5663,-280.1 7.90811,-266.247 3.52709,-252 -1.1757,-236.707 -1.1757,-231.293 3.52709,-216 7.90811,-201.753 17.5663,-187.9 25.7767,-177.931"/>
</g>
<!-- 29&#45;&#45;6 -->
<g id="edge44" class="edge"><title>29&#45;&#45;6</title>
<path fill="none" stroke="black" d="M39.5271,-287.697C39.5271,-276.846 39.5271,-262.917 39.5271,-252.104"/>
</g>
<!-- 29&#45;&#45;22 -->
<g id="edge45" class="edge"><title>29&#45;&#45;22</title>
<path fill="none" stroke="black" d="M65.9869,-301.576C157.844,-289.691 462.34,-250.292 554.118,-238.417"/>
</g>
</g>
</svg>
