<?xml version="1.0" encoding="UTF-8" standalone="no"?>
<!DOCTYPE svg PUBLIC "-//W3C//DTD SVG 1.1//EN"
 "http://www.w3.org/Graphics/SVG/1.1/DTD/svg11.dtd">
<!-- Generated by graphviz version 2.38.0 (20140413.2041)
 -->
<!-- Title: example Pages: 1 -->
<svg width="152pt" height="476pt"
 viewBox="0.00 0.00 152.00 476.00" xmlns="http://www.w3.org/2000/svg" xmlns:xlink="http://www.w3.org/1999/xlink">
<g id="graph0" class="graph" transform="scale(1 1) rotate(0) translate(4 472)">
<title>example</title>
<polygon fill="white" stroke="none" points="-4,4 -4,-472 148,-472 148,4 -4,4"/>
<!-- Каждый -->
<g id="node1" class="node"><title>Каждый</title>
<ellipse fill="red" stroke="red" cx="72" cy="-450" rx="72" ry="18"/>
<text text-anchor="middle" x="72" y="-446.3" font-family="Times,serif" font-size="14.00">Каждый</text>
</g>
<!-- Охотник -->
<g id="node2" class="node"><title>Охотник</title>
<ellipse fill="orange" stroke="orange" cx="72" cy="-378" rx="72" ry="18"/>
<text text-anchor="middle" x="72" y="-374.3" font-family="Times,serif" font-size="14.00">Охотник</text>
</g>
<!-- Каждый&#45;&#45;Охотник -->
<g id="edge1" class="edge"><title>Каждый&#45;&#45;Охотник</title>
<path fill="none" stroke="black" d="M72,-431.697C72,-420.846 72,-406.917 72,-396.104"/>
</g>
<!-- Желает -->
<g id="node3" class="node"><title>Желает</title>
<ellipse fill="yellow" stroke="yellow" cx="72" cy="-306" rx="72" ry="18"/>
<text text-anchor="middle" x="72" y="-302.3" font-family="Times,serif" font-size="14.00">Желает</text>
</g>
<!-- Охотник&#45;&#45;Желает -->
<g id="edge2" class="edge"><title>Охотник&#45;&#45;Желает</title>
<path fill="none" stroke="black" d="M72,-359.697C72,-348.846 72,-334.917 72,-324.104"/>
</g>
<!-- Знать -->
<g id="node4" class="node"><title>Знать</title>
<ellipse fill="green" stroke="green" cx="72" cy="-234" rx="72" ry="18"/>
<text text-anchor="middle" x="72" y="-230.3" font-family="Times,serif" font-size="14.00">Знать</text>
</g>
<!-- Желает&#45;&#45;Знать -->
<g id="edge3" class="edge"><title>Желает&#45;&#45;Знать</title>
<path fill="none" stroke="black" d="M72,-287.697C72,-276.846 72,-262.917 72,-252.104"/>
</g>
<!-- Где -->
<g id="node5" class="node"><title>Где</title>
<ellipse fill="cyan" stroke="cyan" cx="72" cy="-162" rx="72" ry="18"/>
<text text-anchor="middle" x="72" y="-158.3" font-family="Times,serif" font-size="14.00">Где</text>
</g>
<!-- Знать&#45;&#45;Где -->
<g id="edge4" class="edge"><title>Знать&#45;&#45;Где</title>
<path fill="none" stroke="black" d="M72,-215.697C72,-204.846 72,-190.917 72,-180.104"/>
</g>
<!-- Сидит -->
<g id="node6" class="node"><title>Сидит</title>
<ellipse fill="blue" stroke="blue" cx="72" cy="-90" rx="72" ry="18"/>
<text text-anchor="middle" x="72" y="-86.3" font-family="Times,serif" font-size="14.00">Сидит</text>
</g>
<!-- Где&#45;&#45;Сидит -->
<g id="edge5" class="edge"><title>Где&#45;&#45;Сидит</title>
<path fill="none" stroke="black" d="M72,-143.697C72,-132.846 72,-118.917 72,-108.104"/>
</g>
<!-- Фазан -->
<g id="node7" class="node"><title>Фазан</title>
<ellipse fill="purple" stroke="purple" cx="72" cy="-18" rx="72" ry="18"/>
<text text-anchor="middle" x="72" y="-14.3" font-family="Times,serif" font-size="14.00">Фазан</text>
</g>
<!-- Сидит&#45;&#45;Фазан -->
<g id="edge6" class="edge"><title>Сидит&#45;&#45;Фазан</title>
<path fill="none" stroke="black" d="M72,-71.6966C72,-60.8463 72,-46.9167 72,-36.1043"/>
</g>
</g>
</svg>
