<?xml version="1.0" encoding="UTF-8" standalone="no"?>
<!DOCTYPE svg PUBLIC "-//W3C//DTD SVG 1.1//EN"
 "http://www.w3.org/Graphics/SVG/1.1/DTD/svg11.dtd">
<!-- Generated by graphviz version 2.38.0 (20140413.2041)
 -->
<!-- Title: example Pages: 1 -->
<svg width="96pt" height="188pt"
 viewBox="0.00 0.00 96.39 188.00" xmlns="http://www.w3.org/2000/svg" xmlns:xlink="http://www.w3.org/1999/xlink">
<g id="graph0" class="graph" transform="scale(1 1) rotate(0) translate(4 184)">
<title>example</title>
<polygon fill="white" stroke="none" points="-4,4 -4,-184 92.3922,-184 92.3922,4 -4,4"/>
<!-- Пришёл -->
<g id="node1" class="node"><title>Пришёл</title>
<ellipse fill="none" stroke="black" cx="44.1961" cy="-162" rx="40.8928" ry="18"/>
<text text-anchor="middle" x="44.1961" y="-158.3" font-family="Times,serif" font-size="14.00">Пришёл</text>
</g>
<!-- Увидел -->
<g id="node2" class="node"><title>Увидел</title>
<ellipse fill="none" stroke="black" cx="44.1961" cy="-90" rx="39.7935" ry="18"/>
<text text-anchor="middle" x="44.1961" y="-86.3" font-family="Times,serif" font-size="14.00">Увидел</text>
</g>
<!-- Пришёл&#45;&gt;Увидел -->
<g id="edge1" class="edge"><title>Пришёл&#45;&gt;Увидел</title>
<path fill="none" stroke="black" d="M44.1961,-143.697C44.1961,-135.983 44.1961,-126.712 44.1961,-118.112"/>
<polygon fill="black" stroke="black" points="47.6962,-118.104 44.1961,-108.104 40.6962,-118.104 47.6962,-118.104"/>
</g>
<!-- Победил -->
<g id="node3" class="node"><title>Победил</title>
<ellipse fill="none" stroke="black" cx="44.1961" cy="-18" rx="44.393" ry="18"/>
<text text-anchor="middle" x="44.1961" y="-14.3" font-family="Times,serif" font-size="14.00">Победил</text>
</g>
<!-- Увидел&#45;&gt;Победил -->
<g id="edge2" class="edge"><title>Увидел&#45;&gt;Победил</title>
<path fill="none" stroke="black" d="M44.1961,-71.6966C44.1961,-63.9827 44.1961,-54.7125 44.1961,-46.1124"/>
<polygon fill="black" stroke="black" points="47.6962,-46.1043 44.1961,-36.1043 40.6962,-46.1044 47.6962,-46.1043"/>
</g>
</g>
</svg>
