<?xml version="1.0" encoding="UTF-8" standalone="no"?>
<!DOCTYPE svg PUBLIC "-//W3C//DTD SVG 1.1//EN"
 "http://www.w3.org/Graphics/SVG/1.1/DTD/svg11.dtd">
<!-- Generated by graphviz version 2.38.0 (20140413.2041)
 -->
<!-- Title: example Pages: 1 -->
<svg width="784pt" height="218pt"
 viewBox="0.00 0.00 783.63 218.00" xmlns="http://www.w3.org/2000/svg" xmlns:xlink="http://www.w3.org/1999/xlink">
<g id="graph0" class="graph" transform="scale(1 1) rotate(0) translate(4 214)">
<title>example</title>
<polygon fill="white" stroke="none" points="-4,4 -4,-214 779.634,-214 779.634,4 -4,4"/>
<!-- Это двигается? -->
<g id="node1" class="node"><title>Это двигается?</title>
<ellipse fill="none" stroke="black" cx="383.742" cy="-192" rx="69.5877" ry="18"/>
<text text-anchor="middle" x="383.742" y="-188.3" font-family="Times,serif" font-size="14.00">Это двигается?</text>
</g>
<!-- А должно ? -->
<g id="node2" class="node"><title>А должно ?</title>
<ellipse fill="none" stroke="black" cx="267.742" cy="-105" rx="53.8905" ry="18"/>
<text text-anchor="middle" x="267.742" y="-101.3" font-family="Times,serif" font-size="14.00">А должно ?</text>
</g>
<!-- Это двигается?&#45;&#45;А должно ? -->
<g id="edge1" class="edge"><title>Это двигается?&#45;&#45;А должно ?</title>
<path fill="none" stroke="black" d="M361.65,-174.812C340.747,-159.495 309.584,-136.66 288.969,-121.554"/>
<text text-anchor="middle" x="344.242" y="-144.8" font-family="Times,serif" font-size="14.00">Нет</text>
</g>
<!-- А должно? -->
<g id="node5" class="node"><title>А должно?</title>
<ellipse fill="none" stroke="black" cx="463.742" cy="-105" rx="51.9908" ry="18"/>
<text text-anchor="middle" x="463.742" y="-101.3" font-family="Times,serif" font-size="14.00">А должно?</text>
</g>
<!-- Это двигается?&#45;&#45;А должно? -->
<g id="edge4" class="edge"><title>Это двигается?&#45;&#45;А должно?</title>
<path fill="none" stroke="black" d="M399.548,-174.207C413.664,-159.208 434.219,-137.368 448.242,-122.469"/>
<text text-anchor="middle" x="436.742" y="-144.8" font-family="Times,serif" font-size="14.00">Да</text>
</g>
<!-- Тогда всё в порядке -->
<g id="node3" class="node"><title>Тогда всё в порядке</title>
<ellipse fill="none" stroke="black" cx="87.7422" cy="-18" rx="87.9851" ry="18"/>
<text text-anchor="middle" x="87.7422" y="-14.3" font-family="Times,serif" font-size="14.00">Тогда всё в порядке</text>
</g>
<!-- А должно ?&#45;&#45;Тогда всё в порядке -->
<g id="edge2" class="edge"><title>А должно ?&#45;&#45;Тогда всё в порядке</title>
<path fill="none" stroke="black" d="M238.019,-89.964C205.866,-74.7807 154.718,-50.6272 121.184,-34.7917"/>
<text text-anchor="middle" x="200.242" y="-57.8" font-family="Times,serif" font-size="14.00">Нет</text>
</g>
<!-- Спрыкай WD&#45;40 -->
<g id="node4" class="node"><title>Спрыкай WD&#45;40</title>
<ellipse fill="none" stroke="black" cx="267.742" cy="-18" rx="74.187" ry="18"/>
<text text-anchor="middle" x="267.742" y="-14.3" font-family="Times,serif" font-size="14.00">Спрыкай WD&#45;40</text>
</g>
<!-- А должно ?&#45;&#45;Спрыкай WD&#45;40 -->
<g id="edge3" class="edge"><title>А должно ?&#45;&#45;Спрыкай WD&#45;40</title>
<path fill="none" stroke="black" d="M267.742,-86.799C267.742,-72.0519 267.742,-50.9152 267.742,-36.1754"/>
<text text-anchor="middle" x="275.742" y="-57.8" font-family="Times,serif" font-size="14.00">Да</text>
</g>
<!-- Фигачь синей изолентой -->
<g id="node6" class="node"><title>Фигачь синей изолентой</title>
<ellipse fill="none" stroke="black" cx="463.742" cy="-18" rx="103.982" ry="18"/>
<text text-anchor="middle" x="463.742" y="-14.3" font-family="Times,serif" font-size="14.00">Фигачь синей изолентой</text>
</g>
<!-- А должно?&#45;&#45;Фигачь синей изолентой -->
<g id="edge5" class="edge"><title>А должно?&#45;&#45;Фигачь синей изолентой</title>
<path fill="none" stroke="black" d="M463.742,-86.799C463.742,-72.0519 463.742,-50.9152 463.742,-36.1754"/>
<text text-anchor="middle" x="475.242" y="-57.8" font-family="Times,serif" font-size="14.00">Нет</text>
</g>
<!-- Не ссы, всё в порядке -->
<g id="node7" class="node"><title>Не ссы, всё в порядке</title>
<ellipse fill="none" stroke="black" cx="680.742" cy="-18" rx="94.7833" ry="18"/>
<text text-anchor="middle" x="680.742" y="-14.3" font-family="Times,serif" font-size="14.00">Не ссы, всё в порядке</text>
</g>
<!-- А должно?&#45;&#45;Не ссы, всё в порядке -->
<g id="edge6" class="edge"><title>А должно?&#45;&#45;Не ссы, всё в порядке</title>
<path fill="none" stroke="black" d="M497.173,-90.905C536.049,-75.6771 600.145,-50.5703 641.389,-34.4148"/>
<text text-anchor="middle" x="593.742" y="-57.8" font-family="Times,serif" font-size="14.00">Да</text>
</g>
</g>
</svg>
